solid CATIA STL
  facet normal  0.000000e+000 -1.000000e+000  0.000000e+000
    outer loop
      vertex  0.000000e+000  3.000000e+001 -3.000000e+001
      vertex  4.000000e+001  3.000000e+001 -3.000000e+001
      vertex  4.000000e+001  3.000000e+001 -2.000000e+001
    endloop
  endfacet
  facet normal  -0.000000e+000 -1.000000e+000  0.000000e+000
    outer loop
      vertex  0.000000e+000  3.000000e+001 -3.000000e+001
      vertex  4.000000e+001  3.000000e+001 -2.000000e+001
      vertex  4.000000e+001  3.000000e+001  2.000000e+001
    endloop
  endfacet
  facet normal  -0.000000e+000 -1.000000e+000  0.000000e+000
    outer loop
      vertex  0.000000e+000  3.000000e+001 -3.000000e+001
      vertex  4.000000e+001  3.000000e+001  2.000000e+001
      vertex  4.000000e+001  3.000000e+001  3.000000e+001
    endloop
  endfacet
  facet normal  -0.000000e+000 -1.000000e+000  0.000000e+000
    outer loop
      vertex  0.000000e+000  3.000000e+001 -3.000000e+001
      vertex  4.000000e+001  3.000000e+001  3.000000e+001
      vertex  0.000000e+000  3.000000e+001  3.000000e+001
    endloop
  endfacet
  facet normal  0.000000e+000 -1.000000e+000  0.000000e+000
    outer loop
      vertex  4.000000e+001  3.000000e+001 -2.000000e+001
      vertex  6.000000e+001  3.000000e+001 -2.000000e+001
      vertex  4.000000e+001  3.000000e+001  2.000000e+001
    endloop
  endfacet
  facet normal  0.000000e+000 -1.000000e+000  0.000000e+000
    outer loop
      vertex  4.000000e+001  3.000000e+001  2.000000e+001
      vertex  6.000000e+001  3.000000e+001 -2.000000e+001
      vertex  6.000000e+001  3.000000e+001  2.000000e+001
    endloop
  endfacet
  facet normal  -0.000000e+000  9.999999e-001  0.000000e+000
    outer loop
      vertex  0.000000e+000  3.300000e+001 -3.300000e+001
      vertex  0.000000e+000  3.300000e+001  3.300000e+001
      vertex  4.000000e+001  3.300000e+001  3.300000e+001
    endloop
  endfacet
  facet normal  0.000000e+000  1.000000e+000  0.000000e+000
    outer loop
      vertex  0.000000e+000  3.300000e+001 -3.300000e+001
      vertex  4.000000e+001  3.300000e+001  3.300000e+001
      vertex  4.000000e+001  3.300000e+001  2.000000e+001
    endloop
  endfacet
  facet normal  0.000000e+000  1.000000e+000  0.000000e+000
    outer loop
      vertex  0.000000e+000  3.300000e+001 -3.300000e+001
      vertex  4.000000e+001  3.300000e+001  2.000000e+001
      vertex  4.000000e+001  3.300000e+001 -2.000000e+001
    endloop
  endfacet
  facet normal  0.000000e+000  1.000000e+000  0.000000e+000
    outer loop
      vertex  0.000000e+000  3.300000e+001 -3.300000e+001
      vertex  4.000000e+001  3.300000e+001 -2.000000e+001
      vertex  4.000000e+001  3.300000e+001 -3.300000e+001
    endloop
  endfacet
  facet normal  0.000000e+000  1.000000e+000  0.000000e+000
    outer loop
      vertex  4.000000e+001  3.300000e+001 -2.000000e+001
      vertex  4.000000e+001  3.300000e+001  2.000000e+001
      vertex  6.000000e+001  3.300000e+001 -2.000000e+001
    endloop
  endfacet
  facet normal  0.000000e+000  1.000000e+000  -0.000000e+000
    outer loop
      vertex  6.000000e+001  3.300000e+001 -2.000000e+001
      vertex  4.000000e+001  3.300000e+001  2.000000e+001
      vertex  6.000000e+001  3.300000e+001  2.000000e+001
    endloop
  endfacet
  facet normal  0.000000e+000  1.000000e+000  0.000000e+000
    outer loop
      vertex  0.000000e+000 -3.000000e+001  3.000000e+001
      vertex  4.000000e+001 -3.000000e+001  3.000000e+001
      vertex  4.000000e+001 -3.000000e+001  2.000000e+001
    endloop
  endfacet
  facet normal  0.000000e+000  1.000000e+000  0.000000e+000
    outer loop
      vertex  0.000000e+000 -3.000000e+001  3.000000e+001
      vertex  4.000000e+001 -3.000000e+001  2.000000e+001
      vertex  4.000000e+001 -3.000000e+001 -2.000000e+001
    endloop
  endfacet
  facet normal  0.000000e+000  1.000000e+000  0.000000e+000
    outer loop
      vertex  0.000000e+000 -3.000000e+001  3.000000e+001
      vertex  4.000000e+001 -3.000000e+001 -2.000000e+001
      vertex  4.000000e+001 -3.000000e+001 -3.000000e+001
    endloop
  endfacet
  facet normal  0.000000e+000  1.000000e+000  0.000000e+000
    outer loop
      vertex  0.000000e+000 -3.000000e+001  3.000000e+001
      vertex  4.000000e+001 -3.000000e+001 -3.000000e+001
      vertex  0.000000e+000 -3.000000e+001 -3.000000e+001
    endloop
  endfacet
  facet normal  0.000000e+000  1.000000e+000  0.000000e+000
    outer loop
      vertex  4.000000e+001 -3.000000e+001  2.000000e+001
      vertex  6.000000e+001 -3.000000e+001  2.000000e+001
      vertex  4.000000e+001 -3.000000e+001 -2.000000e+001
    endloop
  endfacet
  facet normal  0.000000e+000  1.000000e+000  0.000000e+000
    outer loop
      vertex  4.000000e+001 -3.000000e+001 -2.000000e+001
      vertex  6.000000e+001 -3.000000e+001  2.000000e+001
      vertex  6.000000e+001 -3.000000e+001 -2.000000e+001
    endloop
  endfacet
  facet normal  0.000000e+000 -9.999999e-001  0.000000e+000
    outer loop
      vertex  0.000000e+000 -3.300000e+001  3.300000e+001
      vertex  0.000000e+000 -3.300000e+001 -3.300000e+001
      vertex  4.000000e+001 -3.300000e+001 -3.300000e+001
    endloop
  endfacet
  facet normal  0.000000e+000 -1.000000e+000  0.000000e+000
    outer loop
      vertex  0.000000e+000 -3.300000e+001  3.300000e+001
      vertex  4.000000e+001 -3.300000e+001 -3.300000e+001
      vertex  4.000000e+001 -3.300000e+001 -2.000000e+001
    endloop
  endfacet
  facet normal  0.000000e+000 -1.000000e+000  0.000000e+000
    outer loop
      vertex  0.000000e+000 -3.300000e+001  3.300000e+001
      vertex  4.000000e+001 -3.300000e+001 -2.000000e+001
      vertex  4.000000e+001 -3.300000e+001  2.000000e+001
    endloop
  endfacet
  facet normal  0.000000e+000 -1.000000e+000  0.000000e+000
    outer loop
      vertex  0.000000e+000 -3.300000e+001  3.300000e+001
      vertex  4.000000e+001 -3.300000e+001  2.000000e+001
      vertex  4.000000e+001 -3.300000e+001  3.300000e+001
    endloop
  endfacet
  facet normal  0.000000e+000 -1.000000e+000  0.000000e+000
    outer loop
      vertex  4.000000e+001 -3.300000e+001  2.000000e+001
      vertex  4.000000e+001 -3.300000e+001 -2.000000e+001
      vertex  6.000000e+001 -3.300000e+001  2.000000e+001
    endloop
  endfacet
  facet normal  0.000000e+000 -1.000000e+000  -0.000000e+000
    outer loop
      vertex  6.000000e+001 -3.300000e+001  2.000000e+001
      vertex  4.000000e+001 -3.300000e+001 -2.000000e+001
      vertex  6.000000e+001 -3.300000e+001 -2.000000e+001
    endloop
  endfacet
  facet normal  0.000000e+000  0.000000e+000 -1.000000e+000
    outer loop
      vertex  6.000000e+001 -3.000000e+001 -2.000000e+001
      vertex  6.000000e+001 -3.300000e+001 -2.000000e+001
      vertex  4.000000e+001 -3.000000e+001 -2.000000e+001
    endloop
  endfacet
  facet normal  0.000000e+000  0.000000e+000 -1.000000e+000
    outer loop
      vertex  4.000000e+001 -3.000000e+001 -2.000000e+001
      vertex  6.000000e+001 -3.300000e+001 -2.000000e+001
      vertex  4.000000e+001 -3.300000e+001 -2.000000e+001
    endloop
  endfacet
  facet normal  0.000000e+000  0.000000e+000  1.000000e+000
    outer loop
      vertex  6.000000e+001 -3.300000e+001  2.000000e+001
      vertex  6.000000e+001 -3.000000e+001  2.000000e+001
      vertex  4.000000e+001 -3.300000e+001  2.000000e+001
    endloop
  endfacet
  facet normal  0.000000e+000  0.000000e+000  1.000000e+000
    outer loop
      vertex  4.000000e+001 -3.300000e+001  2.000000e+001
      vertex  6.000000e+001 -3.000000e+001  2.000000e+001
      vertex  4.000000e+001 -3.000000e+001  2.000000e+001
    endloop
  endfacet
  facet normal  -0.000000e+000  1.000000e+000  0.000000e+000
    outer loop
      vertex  6.000000e+001  2.000000e+001  2.999970e+001
      vertex  4.000000e+001  2.000000e+001  3.000000e+001
      vertex  6.000000e+001  2.000000e+001  3.299970e+001
    endloop
  endfacet
  facet normal  0.000000e+000  1.000000e+000  0.000000e+000
    outer loop
      vertex  6.000000e+001  2.000000e+001  3.299970e+001
      vertex  4.000000e+001  2.000000e+001  3.000000e+001
      vertex  4.000000e+001  2.000000e+001  3.300000e+001
    endloop
  endfacet
  facet normal -1.497269e-005  0.000000e+000 -1.000000e+000
    outer loop
      vertex  6.000000e+001  2.000000e+001  2.999970e+001
      vertex  6.000000e+001 -2.000000e+001  2.999970e+001
      vertex  4.000000e+001  2.000000e+001  3.000000e+001
    endloop
  endfacet
  facet normal -1.497269e-005  -0.000000e+000 -1.000000e+000
    outer loop
      vertex  4.000000e+001  2.000000e+001  3.000000e+001
      vertex  6.000000e+001 -2.000000e+001  2.999970e+001
      vertex  4.000000e+001 -2.000000e+001  3.000000e+001
    endloop
  endfacet
  facet normal  1.487732e-005  0.000000e+000  1.000000e+000
    outer loop
      vertex  6.000000e+001 -2.000000e+001  3.299970e+001
      vertex  6.000000e+001  2.000000e+001  3.299970e+001
      vertex  4.000000e+001 -2.000000e+001  3.300000e+001
    endloop
  endfacet
  facet normal  1.487732e-005  -0.000000e+000  1.000000e+000
    outer loop
      vertex  4.000000e+001 -2.000000e+001  3.300000e+001
      vertex  6.000000e+001  2.000000e+001  3.299970e+001
      vertex  4.000000e+001  2.000000e+001  3.300000e+001
    endloop
  endfacet
  facet normal  0.000000e+000 -1.000000e+000  0.000000e+000
    outer loop
      vertex  6.000000e+001 -2.000000e+001  3.299970e+001
      vertex  4.000000e+001 -2.000000e+001  3.300000e+001
      vertex  6.000000e+001 -2.000000e+001  2.999970e+001
    endloop
  endfacet
  facet normal  0.000000e+000 -1.000000e+000  0.000000e+000
    outer loop
      vertex  6.000000e+001 -2.000000e+001  2.999970e+001
      vertex  4.000000e+001 -2.000000e+001  3.300000e+001
      vertex  4.000000e+001 -2.000000e+001  3.000000e+001
    endloop
  endfacet
  facet normal -1.497269e-005  0.000000e+000  1.000000e+000
    outer loop
      vertex  6.000000e+001  2.000000e+001 -2.999970e+001
      vertex  4.000000e+001  2.000000e+001 -3.000000e+001
      vertex  6.000000e+001 -2.000000e+001 -2.999970e+001
    endloop
  endfacet
  facet normal -1.497269e-005  0.000000e+000  1.000000e+000
    outer loop
      vertex  6.000000e+001 -2.000000e+001 -2.999970e+001
      vertex  4.000000e+001  2.000000e+001 -3.000000e+001
      vertex  4.000000e+001 -2.000000e+001 -3.000000e+001
    endloop
  endfacet
  facet normal  0.000000e+000  1.000000e+000  0.000000e+000
    outer loop
      vertex  6.000000e+001  2.000000e+001 -3.299970e+001
      vertex  4.000000e+001  2.000000e+001 -3.300000e+001
      vertex  6.000000e+001  2.000000e+001 -2.999970e+001
    endloop
  endfacet
  facet normal  0.000000e+000  1.000000e+000  0.000000e+000
    outer loop
      vertex  6.000000e+001  2.000000e+001 -2.999970e+001
      vertex  4.000000e+001  2.000000e+001 -3.300000e+001
      vertex  4.000000e+001  2.000000e+001 -3.000000e+001
    endloop
  endfacet
  facet normal  0.000000e+000 -1.000000e+000  0.000000e+000
    outer loop
      vertex  6.000000e+001 -2.000000e+001 -2.999970e+001
      vertex  4.000000e+001 -2.000000e+001 -3.000000e+001
      vertex  6.000000e+001 -2.000000e+001 -3.299970e+001
    endloop
  endfacet
  facet normal  -0.000000e+000 -1.000000e+000  0.000000e+000
    outer loop
      vertex  6.000000e+001 -2.000000e+001 -3.299970e+001
      vertex  4.000000e+001 -2.000000e+001 -3.000000e+001
      vertex  4.000000e+001 -2.000000e+001 -3.300000e+001
    endloop
  endfacet
  facet normal  1.487732e-005  0.000000e+000 -1.000000e+000
    outer loop
      vertex  6.000000e+001 -2.000000e+001 -3.299970e+001
      vertex  4.000000e+001 -2.000000e+001 -3.300000e+001
      vertex  6.000000e+001  2.000000e+001 -3.299970e+001
    endloop
  endfacet
  facet normal  1.487732e-005  0.000000e+000 -1.000000e+000
    outer loop
      vertex  6.000000e+001  2.000000e+001 -3.299970e+001
      vertex  4.000000e+001 -2.000000e+001 -3.300000e+001
      vertex  4.000000e+001  2.000000e+001 -3.300000e+001
    endloop
  endfacet
  facet normal  0.000000e+000  0.000000e+000 -1.000000e+000
    outer loop
      vertex  6.000000e+001  3.300000e+001 -2.000000e+001
      vertex  6.000000e+001  3.000000e+001 -2.000000e+001
      vertex  4.000000e+001  3.300000e+001 -2.000000e+001
    endloop
  endfacet
  facet normal  0.000000e+000  0.000000e+000 -1.000000e+000
    outer loop
      vertex  4.000000e+001  3.300000e+001 -2.000000e+001
      vertex  6.000000e+001  3.000000e+001 -2.000000e+001
      vertex  4.000000e+001  3.000000e+001 -2.000000e+001
    endloop
  endfacet
  facet normal  0.000000e+000  0.000000e+000  1.000000e+000
    outer loop
      vertex  6.000000e+001  3.000000e+001  2.000000e+001
      vertex  6.000000e+001  3.300000e+001  2.000000e+001
      vertex  4.000000e+001  3.000000e+001  2.000000e+001
    endloop
  endfacet
  facet normal  0.000000e+000  0.000000e+000  1.000000e+000
    outer loop
      vertex  4.000000e+001  3.000000e+001  2.000000e+001
      vertex  6.000000e+001  3.300000e+001  2.000000e+001
      vertex  4.000000e+001  3.300000e+001  2.000000e+001
    endloop
  endfacet
  facet normal  1.000000e+000  -0.000000e+000  0.000000e+000
    outer loop
      vertex  4.000000e+001 -3.000000e+001 -2.000000e+001
      vertex  4.000000e+001 -3.300000e+001 -2.000000e+001
      vertex  4.000000e+001 -3.000000e+001 -3.000000e+001
    endloop
  endfacet
  facet normal  1.000000e+000  0.000000e+000  0.000000e+000
    outer loop
      vertex  4.000000e+001 -3.000000e+001 -3.000000e+001
      vertex  4.000000e+001 -3.300000e+001 -2.000000e+001
      vertex  4.000000e+001 -3.300000e+001 -3.300000e+001
    endloop
  endfacet
  facet normal  1.000000e+000  0.000000e+000  0.000000e+000
    outer loop
      vertex  4.000000e+001 -3.000000e+001 -3.000000e+001
      vertex  4.000000e+001 -3.300000e+001 -3.300000e+001
      vertex  4.000000e+001 -2.000000e+001 -3.000000e+001
    endloop
  endfacet
  facet normal  1.000000e+000  0.000000e+000  0.000000e+000
    outer loop
      vertex  4.000000e+001 -2.000000e+001 -3.000000e+001
      vertex  4.000000e+001 -3.300000e+001 -3.300000e+001
      vertex  4.000000e+001 -2.000000e+001 -3.300000e+001
    endloop
  endfacet
  facet normal  1.000000e+000  0.000000e+000  0.000000e+000
    outer loop
      vertex  4.000000e+001 -2.000000e+001  3.000000e+001
      vertex  4.000000e+001 -2.000000e+001  3.300000e+001
      vertex  4.000000e+001 -3.000000e+001  3.000000e+001
    endloop
  endfacet
  facet normal  1.000000e+000  0.000000e+000  -0.000000e+000
    outer loop
      vertex  4.000000e+001 -3.000000e+001  3.000000e+001
      vertex  4.000000e+001 -2.000000e+001  3.300000e+001
      vertex  4.000000e+001 -3.300000e+001  3.300000e+001
    endloop
  endfacet
  facet normal  1.000000e+000  0.000000e+000  0.000000e+000
    outer loop
      vertex  4.000000e+001 -3.000000e+001  3.000000e+001
      vertex  4.000000e+001 -3.300000e+001  3.300000e+001
      vertex  4.000000e+001 -3.000000e+001  2.000000e+001
    endloop
  endfacet
  facet normal  1.000000e+000  0.000000e+000  0.000000e+000
    outer loop
      vertex  4.000000e+001 -3.000000e+001  2.000000e+001
      vertex  4.000000e+001 -3.300000e+001  3.300000e+001
      vertex  4.000000e+001 -3.300000e+001  2.000000e+001
    endloop
  endfacet
  facet normal  1.000000e+000  0.000000e+000  0.000000e+000
    outer loop
      vertex  4.000000e+001  2.000000e+001  3.300000e+001
      vertex  4.000000e+001  2.000000e+001  3.000000e+001
      vertex  4.000000e+001  3.300000e+001  3.300000e+001
    endloop
  endfacet
  facet normal  1.000000e+000  0.000000e+000  0.000000e+000
    outer loop
      vertex  4.000000e+001  3.300000e+001  3.300000e+001
      vertex  4.000000e+001  2.000000e+001  3.000000e+001
      vertex  4.000000e+001  3.000000e+001  3.000000e+001
    endloop
  endfacet
  facet normal  1.000000e+000  -0.000000e+000  0.000000e+000
    outer loop
      vertex  4.000000e+001  3.300000e+001  3.300000e+001
      vertex  4.000000e+001  3.000000e+001  3.000000e+001
      vertex  4.000000e+001  3.300000e+001  2.000000e+001
    endloop
  endfacet
  facet normal  1.000000e+000  0.000000e+000  0.000000e+000
    outer loop
      vertex  4.000000e+001  3.300000e+001  2.000000e+001
      vertex  4.000000e+001  3.000000e+001  3.000000e+001
      vertex  4.000000e+001  3.000000e+001  2.000000e+001
    endloop
  endfacet
  facet normal  1.000000e+000  -0.000000e+000  0.000000e+000
    outer loop
      vertex  4.000000e+001  3.300000e+001 -2.000000e+001
      vertex  4.000000e+001  3.000000e+001 -2.000000e+001
      vertex  4.000000e+001  3.300000e+001 -3.300000e+001
    endloop
  endfacet
  facet normal  1.000000e+000  0.000000e+000  0.000000e+000
    outer loop
      vertex  4.000000e+001  3.300000e+001 -3.300000e+001
      vertex  4.000000e+001  3.000000e+001 -2.000000e+001
      vertex  4.000000e+001  3.000000e+001 -3.000000e+001
    endloop
  endfacet
  facet normal  1.000000e+000  0.000000e+000  0.000000e+000
    outer loop
      vertex  4.000000e+001  3.300000e+001 -3.300000e+001
      vertex  4.000000e+001  3.000000e+001 -3.000000e+001
      vertex  4.000000e+001  2.000000e+001 -3.300000e+001
    endloop
  endfacet
  facet normal  1.000000e+000  0.000000e+000  0.000000e+000
    outer loop
      vertex  4.000000e+001  2.000000e+001 -3.300000e+001
      vertex  4.000000e+001  3.000000e+001 -3.000000e+001
      vertex  4.000000e+001  2.000000e+001 -3.000000e+001
    endloop
  endfacet
  facet normal  0.000000e+000  0.000000e+000  1.000000e+000
    outer loop
      vertex  4.000000e+001  2.000000e+001 -3.000000e+001
      vertex  4.000000e+001  3.000000e+001 -3.000000e+001
      vertex  0.000000e+000  3.000000e+001 -3.000000e+001
    endloop
  endfacet
  facet normal  0.000000e+000  0.000000e+000  1.000000e+000
    outer loop
      vertex  0.000000e+000 -3.000000e+001 -3.000000e+001
      vertex  4.000000e+001 -3.000000e+001 -3.000000e+001
      vertex  0.000000e+000  3.000000e+001 -3.000000e+001
    endloop
  endfacet
  facet normal  0.000000e+000  0.000000e+000  1.000000e+000
    outer loop
      vertex  0.000000e+000  3.000000e+001 -3.000000e+001
      vertex  4.000000e+001 -3.000000e+001 -3.000000e+001
      vertex  4.000000e+001 -2.000000e+001 -3.000000e+001
    endloop
  endfacet
  facet normal  0.000000e+000  -0.000000e+000  1.000000e+000
    outer loop
      vertex  0.000000e+000  3.000000e+001 -3.000000e+001
      vertex  4.000000e+001 -2.000000e+001 -3.000000e+001
      vertex  4.000000e+001  2.000000e+001 -3.000000e+001
    endloop
  endfacet
  facet normal  0.000000e+000  0.000000e+000 -1.000000e+000
    outer loop
      vertex  4.000000e+001 -2.000000e+001  3.000000e+001
      vertex  4.000000e+001 -3.000000e+001  3.000000e+001
      vertex  0.000000e+000 -3.000000e+001  3.000000e+001
    endloop
  endfacet
  facet normal  -0.000000e+000  0.000000e+000 -1.000000e+000
    outer loop
      vertex  0.000000e+000  3.000000e+001  3.000000e+001
      vertex  4.000000e+001  3.000000e+001  3.000000e+001
      vertex  0.000000e+000 -3.000000e+001  3.000000e+001
    endloop
  endfacet
  facet normal  0.000000e+000  0.000000e+000 -1.000000e+000
    outer loop
      vertex  0.000000e+000 -3.000000e+001  3.000000e+001
      vertex  4.000000e+001  3.000000e+001  3.000000e+001
      vertex  4.000000e+001  2.000000e+001  3.000000e+001
    endloop
  endfacet
  facet normal  0.000000e+000  -0.000000e+000 -1.000000e+000
    outer loop
      vertex  0.000000e+000 -3.000000e+001  3.000000e+001
      vertex  4.000000e+001  2.000000e+001  3.000000e+001
      vertex  4.000000e+001 -2.000000e+001  3.000000e+001
    endloop
  endfacet
  facet normal  0.000000e+000  -0.000000e+000  1.000000e+000
    outer loop
      vertex  0.000000e+000 -3.300000e+001  3.300000e+001
      vertex  4.000000e+001 -3.300000e+001  3.300000e+001
      vertex  4.000000e+001 -2.000000e+001  3.300000e+001
    endloop
  endfacet
  facet normal  0.000000e+000  0.000000e+000  1.000000e+000
    outer loop
      vertex  4.000000e+001 -2.000000e+001  3.300000e+001
      vertex  4.000000e+001  2.000000e+001  3.300000e+001
      vertex  0.000000e+000 -3.300000e+001  3.300000e+001
    endloop
  endfacet
  facet normal  0.000000e+000  0.000000e+000  1.000000e+000
    outer loop
      vertex  0.000000e+000 -3.300000e+001  3.300000e+001
      vertex  4.000000e+001  2.000000e+001  3.300000e+001
      vertex  4.000000e+001  3.300000e+001  3.300000e+001
    endloop
  endfacet
  facet normal  0.000000e+000  0.000000e+000  9.999999e-001
    outer loop
      vertex  0.000000e+000 -3.300000e+001  3.300000e+001
      vertex  4.000000e+001  3.300000e+001  3.300000e+001
      vertex  0.000000e+000  3.300000e+001  3.300000e+001
    endloop
  endfacet
  facet normal  -0.000000e+000  -0.000000e+000 -1.000000e+000
    outer loop
      vertex  0.000000e+000  3.300000e+001 -3.300000e+001
      vertex  4.000000e+001  3.300000e+001 -3.300000e+001
      vertex  4.000000e+001  2.000000e+001 -3.300000e+001
    endloop
  endfacet
  facet normal  0.000000e+000  0.000000e+000 -1.000000e+000
    outer loop
      vertex  4.000000e+001  2.000000e+001 -3.300000e+001
      vertex  4.000000e+001 -2.000000e+001 -3.300000e+001
      vertex  0.000000e+000  3.300000e+001 -3.300000e+001
    endloop
  endfacet
  facet normal  0.000000e+000  0.000000e+000 -1.000000e+000
    outer loop
      vertex  0.000000e+000  3.300000e+001 -3.300000e+001
      vertex  4.000000e+001 -2.000000e+001 -3.300000e+001
      vertex  4.000000e+001 -3.300000e+001 -3.300000e+001
    endloop
  endfacet
  facet normal  0.000000e+000  0.000000e+000 -9.999999e-001
    outer loop
      vertex  0.000000e+000  3.300000e+001 -3.300000e+001
      vertex  4.000000e+001 -3.300000e+001 -3.300000e+001
      vertex  0.000000e+000 -3.300000e+001 -3.300000e+001
    endloop
  endfacet
  facet normal  1.000000e+000  0.000000e+000  0.000000e+000
    outer loop
      vertex  6.000000e+001 -2.000000e+001 -3.299970e+001
      vertex  6.000000e+001  2.000000e+001 -3.299970e+001
      vertex  6.000000e+001 -2.000000e+001 -2.999970e+001
    endloop
  endfacet
  facet normal  1.000000e+000  -0.000000e+000  0.000000e+000
    outer loop
      vertex  6.000000e+001 -2.000000e+001 -2.999970e+001
      vertex  6.000000e+001  2.000000e+001 -3.299970e+001
      vertex  6.000000e+001  2.000000e+001 -2.999970e+001
    endloop
  endfacet
  facet normal  1.000000e+000  0.000000e+000  0.000000e+000
    outer loop
      vertex  6.000000e+001 -2.000000e+001  2.999970e+001
      vertex  6.000000e+001  2.000000e+001  2.999970e+001
      vertex  6.000000e+001 -2.000000e+001  3.299970e+001
    endloop
  endfacet
  facet normal  1.000000e+000  -0.000000e+000  0.000000e+000
    outer loop
      vertex  6.000000e+001 -2.000000e+001  3.299970e+001
      vertex  6.000000e+001  2.000000e+001  2.999970e+001
      vertex  6.000000e+001  2.000000e+001  3.299970e+001
    endloop
  endfacet
  facet normal  1.000000e+000  0.000000e+000  0.000000e+000
    outer loop
      vertex  6.000000e+001 -3.300000e+001 -2.000000e+001
      vertex  6.000000e+001 -3.000000e+001 -2.000000e+001
      vertex  6.000000e+001 -3.300000e+001  2.000000e+001
    endloop
  endfacet
  facet normal  1.000000e+000  -0.000000e+000  0.000000e+000
    outer loop
      vertex  6.000000e+001 -3.300000e+001  2.000000e+001
      vertex  6.000000e+001 -3.000000e+001 -2.000000e+001
      vertex  6.000000e+001 -3.000000e+001  2.000000e+001
    endloop
  endfacet
  facet normal  1.000000e+000  0.000000e+000  0.000000e+000
    outer loop
      vertex  6.000000e+001  3.000000e+001 -2.000000e+001
      vertex  6.000000e+001  3.300000e+001 -2.000000e+001
      vertex  6.000000e+001  3.000000e+001  2.000000e+001
    endloop
  endfacet
  facet normal  1.000000e+000  -0.000000e+000  0.000000e+000
    outer loop
      vertex  6.000000e+001  3.000000e+001  2.000000e+001
      vertex  6.000000e+001  3.300000e+001 -2.000000e+001
      vertex  6.000000e+001  3.300000e+001  2.000000e+001
    endloop
  endfacet
  facet normal -1.000000e+000  -0.000000e+000  0.000000e+000
    outer loop
      vertex  0.000000e+000 -3.300000e+001  3.300000e+001
      vertex  0.000000e+000 -3.000000e+001 -3.000000e+001
      vertex  0.000000e+000 -3.300000e+001 -3.300000e+001
    endloop
  endfacet
  facet normal -1.000000e+000  0.000000e+000  0.000000e+000
    outer loop
      vertex  0.000000e+000 -3.300000e+001 -3.300000e+001
      vertex  0.000000e+000 -3.000000e+001 -3.000000e+001
      vertex  0.000000e+000  3.000000e+001 -3.000000e+001
    endloop
  endfacet
  facet normal -1.000000e+000  0.000000e+000  -0.000000e+000
    outer loop
      vertex  0.000000e+000 -3.300000e+001 -3.300000e+001
      vertex  0.000000e+000  3.000000e+001 -3.000000e+001
      vertex  0.000000e+000  3.300000e+001 -3.300000e+001
    endloop
  endfacet
  facet normal -1.000000e+000  0.000000e+000  0.000000e+000
    outer loop
      vertex  0.000000e+000 -3.000000e+001 -3.000000e+001
      vertex  0.000000e+000 -3.300000e+001  3.300000e+001
      vertex  0.000000e+000 -3.000000e+001  3.000000e+001
    endloop
  endfacet
  facet normal -1.000000e+000  0.000000e+000  0.000000e+000
    outer loop
      vertex  0.000000e+000 -3.000000e+001  3.000000e+001
      vertex  0.000000e+000 -3.300000e+001  3.300000e+001
      vertex  0.000000e+000  3.300000e+001  3.300000e+001
    endloop
  endfacet
  facet normal -1.000000e+000  0.000000e+000  0.000000e+000
    outer loop
      vertex  0.000000e+000 -3.000000e+001  3.000000e+001
      vertex  0.000000e+000  3.300000e+001  3.300000e+001
      vertex  0.000000e+000  3.000000e+001  3.000000e+001
    endloop
  endfacet
  facet normal -1.000000e+000  0.000000e+000  0.000000e+000
    outer loop
      vertex  0.000000e+000  3.000000e+001  3.000000e+001
      vertex  0.000000e+000  3.300000e+001  3.300000e+001
      vertex  0.000000e+000  3.300000e+001 -3.300000e+001
    endloop
  endfacet
  facet normal -1.000000e+000  0.000000e+000  0.000000e+000
    outer loop
      vertex  0.000000e+000  3.000000e+001  3.000000e+001
      vertex  0.000000e+000  3.300000e+001 -3.300000e+001
      vertex  0.000000e+000  3.000000e+001 -3.000000e+001
    endloop
  endfacet
endsolid CATIA STL
