solid CATIA STL
  facet normal  0.000000e+000  0.000000e+000  1.000000e+000
    outer loop
      vertex  5.000000e+000 -1.000000e+000  5.000000e+000
      vertex  5.000000e+000  6.000000e+000  5.000000e+000
      vertex  0.000000e+000  1.000000e+001  5.000000e+000
    endloop
  endfacet
  facet normal  0.000000e+000  0.000000e+000  1.000000e+000
    outer loop
      vertex  5.000000e+000 -1.000000e+000  5.000000e+000
      vertex  0.000000e+000  1.000000e+001  5.000000e+000
      vertex  0.000000e+000 -1.000000e+001  5.000000e+000
    endloop
  endfacet
  facet normal  0.000000e+000  0.000000e+000  1.000000e+000
    outer loop
      vertex  5.000000e+000 -1.000000e+000  5.000000e+000
      vertex  0.000000e+000 -1.000000e+001  5.000000e+000
      vertex  1.350000e+001 -8.000000e+000  5.000000e+000
    endloop
  endfacet
  facet normal  0.000000e+000  -0.000000e+000  1.000000e+000
    outer loop
      vertex  5.000000e+000 -1.000000e+000  5.000000e+000
      vertex  1.350000e+001 -8.000000e+000  5.000000e+000
      vertex  1.357341e+001 -7.536475e+000  5.000000e+000
    endloop
  endfacet
  facet normal  0.000000e+000  -0.000000e+000  1.000000e+000
    outer loop
      vertex  5.000000e+000 -1.000000e+000  5.000000e+000
      vertex  1.357341e+001 -7.536475e+000  5.000000e+000
      vertex  1.378647e+001 -7.118322e+000  5.000000e+000
    endloop
  endfacet
  facet normal  0.000000e+000  -0.000000e+000  1.000000e+000
    outer loop
      vertex  5.000000e+000 -1.000000e+000  5.000000e+000
      vertex  1.378647e+001 -7.118322e+000  5.000000e+000
      vertex  1.411832e+001 -6.786475e+000  5.000000e+000
    endloop
  endfacet
  facet normal  0.000000e+000  -0.000000e+000  1.000000e+000
    outer loop
      vertex  5.000000e+000 -1.000000e+000  5.000000e+000
      vertex  1.411832e+001 -6.786475e+000  5.000000e+000
      vertex  1.453647e+001 -6.573415e+000  5.000000e+000
    endloop
  endfacet
  facet normal  0.000000e+000  -0.000000e+000  1.000000e+000
    outer loop
      vertex  5.000000e+000 -1.000000e+000  5.000000e+000
      vertex  1.453647e+001 -6.573415e+000  5.000000e+000
      vertex  1.500000e+001 -6.500000e+000  5.000000e+000
    endloop
  endfacet
  facet normal  -0.000000e+000  -0.000000e+000  9.999999e-001
    outer loop
      vertex  5.000000e+000 -1.000000e+000  5.000000e+000
      vertex  1.500000e+001 -6.500000e+000  5.000000e+000
      vertex  1.546353e+001 -6.573415e+000  5.000000e+000
    endloop
  endfacet
  facet normal  -0.000000e+000  0.000000e+000  1.000000e+000
    outer loop
      vertex  1.700000e+001 -1.000000e+000  5.000000e+000
      vertex  5.000000e+000 -1.000000e+000  5.000000e+000
      vertex  1.546353e+001 -6.573415e+000  5.000000e+000
    endloop
  endfacet
  facet normal  -0.000000e+000  0.000000e+000  9.999999e-001
    outer loop
      vertex  1.700000e+001 -1.000000e+000  5.000000e+000
      vertex  1.546353e+001 -6.573415e+000  5.000000e+000
      vertex  1.588168e+001 -6.786475e+000  5.000000e+000
    endloop
  endfacet
  facet normal  -0.000000e+000  0.000000e+000  1.000000e+000
    outer loop
      vertex  1.700000e+001 -1.000000e+000  5.000000e+000
      vertex  1.588168e+001 -6.786475e+000  5.000000e+000
      vertex  1.621353e+001 -7.118322e+000  5.000000e+000
    endloop
  endfacet
  facet normal  -0.000000e+000  0.000000e+000  1.000000e+000
    outer loop
      vertex  1.700000e+001 -1.000000e+000  5.000000e+000
      vertex  1.621353e+001 -7.118322e+000  5.000000e+000
      vertex  1.800000e+001 -1.000000e+001  5.000000e+000
    endloop
  endfacet
  facet normal  0.000000e+000  0.000000e+000  1.000000e+000
    outer loop
      vertex  0.000000e+000 -1.000000e+001  5.000000e+000
      vertex  1.800000e+001 -1.000000e+001  5.000000e+000
      vertex  1.500000e+001 -9.500000e+000  5.000000e+000
    endloop
  endfacet
  facet normal  0.000000e+000  0.000000e+000  1.000000e+000
    outer loop
      vertex  0.000000e+000 -1.000000e+001  5.000000e+000
      vertex  1.500000e+001 -9.500000e+000  5.000000e+000
      vertex  1.453647e+001 -9.426585e+000  5.000000e+000
    endloop
  endfacet
  facet normal  0.000000e+000  0.000000e+000  1.000000e+000
    outer loop
      vertex  0.000000e+000 -1.000000e+001  5.000000e+000
      vertex  1.453647e+001 -9.426585e+000  5.000000e+000
      vertex  1.411832e+001 -9.213526e+000  5.000000e+000
    endloop
  endfacet
  facet normal  0.000000e+000  0.000000e+000  1.000000e+000
    outer loop
      vertex  0.000000e+000 -1.000000e+001  5.000000e+000
      vertex  1.411832e+001 -9.213526e+000  5.000000e+000
      vertex  1.378647e+001 -8.881678e+000  5.000000e+000
    endloop
  endfacet
  facet normal  0.000000e+000  0.000000e+000  1.000000e+000
    outer loop
      vertex  0.000000e+000 -1.000000e+001  5.000000e+000
      vertex  1.378647e+001 -8.881678e+000  5.000000e+000
      vertex  1.357341e+001 -8.463526e+000  5.000000e+000
    endloop
  endfacet
  facet normal  0.000000e+000  0.000000e+000  1.000000e+000
    outer loop
      vertex  0.000000e+000 -1.000000e+001  5.000000e+000
      vertex  1.357341e+001 -8.463526e+000  5.000000e+000
      vertex  1.350000e+001 -8.000000e+000  5.000000e+000
    endloop
  endfacet
  facet normal  0.000000e+000  0.000000e+000  1.000000e+000
    outer loop
      vertex  1.800000e+001 -1.000000e+001  5.000000e+000
      vertex  1.621353e+001 -7.118322e+000  5.000000e+000
      vertex  1.642658e+001 -7.536475e+000  5.000000e+000
    endloop
  endfacet
  facet normal  0.000000e+000  0.000000e+000  1.000000e+000
    outer loop
      vertex  1.800000e+001 -1.000000e+001  5.000000e+000
      vertex  1.642658e+001 -7.536475e+000  5.000000e+000
      vertex  1.650000e+001 -8.000000e+000  5.000000e+000
    endloop
  endfacet
  facet normal  0.000000e+000  0.000000e+000  1.000000e+000
    outer loop
      vertex  1.800000e+001 -1.000000e+001  5.000000e+000
      vertex  1.650000e+001 -8.000000e+000  5.000000e+000
      vertex  1.642658e+001 -8.463526e+000  5.000000e+000
    endloop
  endfacet
  facet normal  0.000000e+000  0.000000e+000  1.000000e+000
    outer loop
      vertex  1.800000e+001 -1.000000e+001  5.000000e+000
      vertex  1.642658e+001 -8.463526e+000  5.000000e+000
      vertex  1.621353e+001 -8.881678e+000  5.000000e+000
    endloop
  endfacet
  facet normal  0.000000e+000  0.000000e+000  1.000000e+000
    outer loop
      vertex  1.800000e+001 -1.000000e+001  5.000000e+000
      vertex  1.621353e+001 -8.881678e+000  5.000000e+000
      vertex  1.588168e+001 -9.213526e+000  5.000000e+000
    endloop
  endfacet
  facet normal  0.000000e+000  0.000000e+000  1.000000e+000
    outer loop
      vertex  1.800000e+001 -1.000000e+001  5.000000e+000
      vertex  1.588168e+001 -9.213526e+000  5.000000e+000
      vertex  1.546353e+001 -9.426585e+000  5.000000e+000
    endloop
  endfacet
  facet normal  0.000000e+000  0.000000e+000  1.000000e+000
    outer loop
      vertex  1.800000e+001 -1.000000e+001  5.000000e+000
      vertex  1.546353e+001 -9.426585e+000  5.000000e+000
      vertex  1.500000e+001 -9.500000e+000  5.000000e+000
    endloop
  endfacet
  facet normal  0.000000e+000  0.000000e+000  1.000000e+000
    outer loop
      vertex  5.000000e+000  6.000000e+000  5.000000e+000
      vertex  1.700000e+001  6.000000e+000  5.000000e+000
      vertex  0.000000e+000  1.000000e+001  5.000000e+000
    endloop
  endfacet
  facet normal  -0.000000e+000  0.000000e+000  1.000000e+000
    outer loop
      vertex  0.000000e+000  1.000000e+001  5.000000e+000
      vertex  1.700000e+001  6.000000e+000  5.000000e+000
      vertex  1.800000e+001  1.000000e+001  5.000000e+000
    endloop
  endfacet
  facet normal  0.000000e+000  0.000000e+000  1.000000e+000
    outer loop
      vertex  1.700000e+001  6.000000e+000  5.000000e+000
      vertex  1.700000e+001 -1.000000e+000  5.000000e+000
      vertex  1.800000e+001  1.000000e+001  5.000000e+000
    endloop
  endfacet
  facet normal  0.000000e+000  0.000000e+000  1.000000e+000
    outer loop
      vertex  1.800000e+001  1.000000e+001  5.000000e+000
      vertex  1.700000e+001 -1.000000e+000  5.000000e+000
      vertex  1.800000e+001 -1.000000e+001  5.000000e+000
    endloop
  endfacet
  facet normal  0.000000e+000  0.000000e+000 -1.000000e+000
    outer loop
      vertex  1.800000e+001 -1.000000e+001  2.000000e+000
      vertex  3.000000e+000 -1.000000e+001  2.000000e+000
      vertex  1.500000e+001 -9.500000e+000  2.000000e+000
    endloop
  endfacet
  facet normal  0.000000e+000  0.000000e+000 -1.000000e+000
    outer loop
      vertex  1.800000e+001 -1.000000e+001  2.000000e+000
      vertex  1.500000e+001 -9.500000e+000  2.000000e+000
      vertex  1.546353e+001 -9.426585e+000  2.000000e+000
    endloop
  endfacet
  facet normal  0.000000e+000  0.000000e+000 -9.999999e-001
    outer loop
      vertex  1.800000e+001 -1.000000e+001  2.000000e+000
      vertex  1.546353e+001 -9.426585e+000  2.000000e+000
      vertex  1.588168e+001 -9.213526e+000  2.000000e+000
    endloop
  endfacet
  facet normal  0.000000e+000  0.000000e+000 -1.000000e+000
    outer loop
      vertex  1.800000e+001 -1.000000e+001  2.000000e+000
      vertex  1.588168e+001 -9.213526e+000  2.000000e+000
      vertex  1.621353e+001 -8.881678e+000  2.000000e+000
    endloop
  endfacet
  facet normal  0.000000e+000  0.000000e+000 -1.000000e+000
    outer loop
      vertex  1.800000e+001 -1.000000e+001  2.000000e+000
      vertex  1.621353e+001 -8.881678e+000  2.000000e+000
      vertex  1.642658e+001 -8.463526e+000  2.000000e+000
    endloop
  endfacet
  facet normal  0.000000e+000  0.000000e+000 -1.000000e+000
    outer loop
      vertex  1.800000e+001 -1.000000e+001  2.000000e+000
      vertex  1.642658e+001 -8.463526e+000  2.000000e+000
      vertex  1.650000e+001 -8.000000e+000  2.000000e+000
    endloop
  endfacet
  facet normal  0.000000e+000  0.000000e+000 -1.000000e+000
    outer loop
      vertex  1.800000e+001 -1.000000e+001  2.000000e+000
      vertex  1.650000e+001 -8.000000e+000  2.000000e+000
      vertex  1.700000e+001 -1.000000e+000  2.000000e+000
    endloop
  endfacet
  facet normal  0.000000e+000  0.000000e+000 -1.000000e+000
    outer loop
      vertex  1.800000e+001 -1.000000e+001  2.000000e+000
      vertex  1.700000e+001 -1.000000e+000  2.000000e+000
      vertex  1.700000e+001  6.000000e+000  2.000000e+000
    endloop
  endfacet
  facet normal  0.000000e+000  0.000000e+000 -1.000000e+000
    outer loop
      vertex  1.800000e+001 -1.000000e+001  2.000000e+000
      vertex  1.700000e+001  6.000000e+000  2.000000e+000
      vertex  1.800000e+001  1.000000e+001  2.000000e+000
    endloop
  endfacet
  facet normal  0.000000e+000  0.000000e+000 -1.000000e+000
    outer loop
      vertex  3.000000e+000 -1.000000e+001  2.000000e+000
      vertex  3.000000e+000  1.000000e+001  2.000000e+000
      vertex  5.000000e+000  6.000000e+000  2.000000e+000
    endloop
  endfacet
  facet normal  0.000000e+000  -0.000000e+000 -1.000000e+000
    outer loop
      vertex  3.000000e+000 -1.000000e+001  2.000000e+000
      vertex  5.000000e+000  6.000000e+000  2.000000e+000
      vertex  5.000000e+000 -1.000000e+000  2.000000e+000
    endloop
  endfacet
  facet normal  0.000000e+000  -0.000000e+000 -1.000000e+000
    outer loop
      vertex  3.000000e+000 -1.000000e+001  2.000000e+000
      vertex  5.000000e+000 -1.000000e+000  2.000000e+000
      vertex  1.350000e+001 -8.000000e+000  2.000000e+000
    endloop
  endfacet
  facet normal  0.000000e+000  -0.000000e+000 -1.000000e+000
    outer loop
      vertex  3.000000e+000 -1.000000e+001  2.000000e+000
      vertex  1.350000e+001 -8.000000e+000  2.000000e+000
      vertex  1.357341e+001 -8.463526e+000  2.000000e+000
    endloop
  endfacet
  facet normal  0.000000e+000  -0.000000e+000 -1.000000e+000
    outer loop
      vertex  3.000000e+000 -1.000000e+001  2.000000e+000
      vertex  1.357341e+001 -8.463526e+000  2.000000e+000
      vertex  1.378647e+001 -8.881678e+000  2.000000e+000
    endloop
  endfacet
  facet normal  0.000000e+000  -0.000000e+000 -1.000000e+000
    outer loop
      vertex  3.000000e+000 -1.000000e+001  2.000000e+000
      vertex  1.378647e+001 -8.881678e+000  2.000000e+000
      vertex  1.411832e+001 -9.213526e+000  2.000000e+000
    endloop
  endfacet
  facet normal  0.000000e+000  -0.000000e+000 -1.000000e+000
    outer loop
      vertex  3.000000e+000 -1.000000e+001  2.000000e+000
      vertex  1.411832e+001 -9.213526e+000  2.000000e+000
      vertex  1.453647e+001 -9.426585e+000  2.000000e+000
    endloop
  endfacet
  facet normal  0.000000e+000  -0.000000e+000 -1.000000e+000
    outer loop
      vertex  3.000000e+000 -1.000000e+001  2.000000e+000
      vertex  1.453647e+001 -9.426585e+000  2.000000e+000
      vertex  1.500000e+001 -9.500000e+000  2.000000e+000
    endloop
  endfacet
  facet normal  -0.000000e+000  0.000000e+000 -1.000000e+000
    outer loop
      vertex  5.000000e+000 -1.000000e+000  2.000000e+000
      vertex  1.700000e+001 -1.000000e+000  2.000000e+000
      vertex  1.500000e+001 -6.500000e+000  2.000000e+000
    endloop
  endfacet
  facet normal  -0.000000e+000  0.000000e+000 -1.000000e+000
    outer loop
      vertex  5.000000e+000 -1.000000e+000  2.000000e+000
      vertex  1.500000e+001 -6.500000e+000  2.000000e+000
      vertex  1.453647e+001 -6.573415e+000  2.000000e+000
    endloop
  endfacet
  facet normal  -0.000000e+000  0.000000e+000 -1.000000e+000
    outer loop
      vertex  5.000000e+000 -1.000000e+000  2.000000e+000
      vertex  1.453647e+001 -6.573415e+000  2.000000e+000
      vertex  1.411832e+001 -6.786475e+000  2.000000e+000
    endloop
  endfacet
  facet normal  -0.000000e+000  0.000000e+000 -1.000000e+000
    outer loop
      vertex  5.000000e+000 -1.000000e+000  2.000000e+000
      vertex  1.411832e+001 -6.786475e+000  2.000000e+000
      vertex  1.378647e+001 -7.118322e+000  2.000000e+000
    endloop
  endfacet
  facet normal  -0.000000e+000  0.000000e+000 -1.000000e+000
    outer loop
      vertex  5.000000e+000 -1.000000e+000  2.000000e+000
      vertex  1.378647e+001 -7.118322e+000  2.000000e+000
      vertex  1.357341e+001 -7.536475e+000  2.000000e+000
    endloop
  endfacet
  facet normal  -0.000000e+000  0.000000e+000 -1.000000e+000
    outer loop
      vertex  5.000000e+000 -1.000000e+000  2.000000e+000
      vertex  1.357341e+001 -7.536475e+000  2.000000e+000
      vertex  1.350000e+001 -8.000000e+000  2.000000e+000
    endloop
  endfacet
  facet normal  0.000000e+000  0.000000e+000 -1.000000e+000
    outer loop
      vertex  1.700000e+001 -1.000000e+000  2.000000e+000
      vertex  1.650000e+001 -8.000000e+000  2.000000e+000
      vertex  1.642658e+001 -7.536475e+000  2.000000e+000
    endloop
  endfacet
  facet normal  0.000000e+000  0.000000e+000 -9.999999e-001
    outer loop
      vertex  1.700000e+001 -1.000000e+000  2.000000e+000
      vertex  1.642658e+001 -7.536475e+000  2.000000e+000
      vertex  1.621353e+001 -7.118322e+000  2.000000e+000
    endloop
  endfacet
  facet normal  0.000000e+000  0.000000e+000 -1.000000e+000
    outer loop
      vertex  1.700000e+001 -1.000000e+000  2.000000e+000
      vertex  1.621353e+001 -7.118322e+000  2.000000e+000
      vertex  1.588168e+001 -6.786475e+000  2.000000e+000
    endloop
  endfacet
  facet normal  0.000000e+000  0.000000e+000 -1.000000e+000
    outer loop
      vertex  1.700000e+001 -1.000000e+000  2.000000e+000
      vertex  1.588168e+001 -6.786475e+000  2.000000e+000
      vertex  1.546353e+001 -6.573415e+000  2.000000e+000
    endloop
  endfacet
  facet normal  0.000000e+000  0.000000e+000 -1.000000e+000
    outer loop
      vertex  1.700000e+001 -1.000000e+000  2.000000e+000
      vertex  1.546353e+001 -6.573415e+000  2.000000e+000
      vertex  1.500000e+001 -6.500000e+000  2.000000e+000
    endloop
  endfacet
  facet normal  -0.000000e+000  0.000000e+000 -1.000000e+000
    outer loop
      vertex  3.000000e+000  1.000000e+001  2.000000e+000
      vertex  1.800000e+001  1.000000e+001  2.000000e+000
      vertex  5.000000e+000  6.000000e+000  2.000000e+000
    endloop
  endfacet
  facet normal  0.000000e+000  0.000000e+000 -1.000000e+000
    outer loop
      vertex  5.000000e+000  6.000000e+000  2.000000e+000
      vertex  1.800000e+001  1.000000e+001  2.000000e+000
      vertex  1.700000e+001  6.000000e+000  2.000000e+000
    endloop
  endfacet
  facet normal  1.000000e+000  0.000000e+000  0.000000e+000
    outer loop
      vertex  5.000000e+000 -1.000000e+000  5.000000e+000
      vertex  5.000000e+000 -1.000000e+000  2.000000e+000
      vertex  5.000000e+000  6.000000e+000  5.000000e+000
    endloop
  endfacet
  facet normal  1.000000e+000  0.000000e+000  0.000000e+000
    outer loop
      vertex  5.000000e+000  6.000000e+000  5.000000e+000
      vertex  5.000000e+000 -1.000000e+000  2.000000e+000
      vertex  5.000000e+000  6.000000e+000  2.000000e+000
    endloop
  endfacet
  facet normal  0.000000e+000 -1.000000e+000  0.000000e+000
    outer loop
      vertex  1.700000e+001  6.000000e+000  5.000000e+000
      vertex  5.000000e+000  6.000000e+000  5.000000e+000
      vertex  1.700000e+001  6.000000e+000  2.000000e+000
    endloop
  endfacet
  facet normal  0.000000e+000 -1.000000e+000  0.000000e+000
    outer loop
      vertex  1.700000e+001  6.000000e+000  2.000000e+000
      vertex  5.000000e+000  6.000000e+000  5.000000e+000
      vertex  5.000000e+000  6.000000e+000  2.000000e+000
    endloop
  endfacet
  facet normal -1.000000e+000  0.000000e+000  0.000000e+000
    outer loop
      vertex  1.700000e+001  6.000000e+000  5.000000e+000
      vertex  1.700000e+001  6.000000e+000  2.000000e+000
      vertex  1.700000e+001 -1.000000e+000  5.000000e+000
    endloop
  endfacet
  facet normal -1.000000e+000  0.000000e+000  0.000000e+000
    outer loop
      vertex  1.700000e+001 -1.000000e+000  5.000000e+000
      vertex  1.700000e+001  6.000000e+000  2.000000e+000
      vertex  1.700000e+001 -1.000000e+000  2.000000e+000
    endloop
  endfacet
  facet normal  0.000000e+000  1.000000e+000  0.000000e+000
    outer loop
      vertex  5.000000e+000 -1.000000e+000  5.000000e+000
      vertex  1.700000e+001 -1.000000e+000  5.000000e+000
      vertex  5.000000e+000 -1.000000e+000  2.000000e+000
    endloop
  endfacet
  facet normal  0.000000e+000  1.000000e+000  0.000000e+000
    outer loop
      vertex  5.000000e+000 -1.000000e+000  2.000000e+000
      vertex  1.700000e+001 -1.000000e+000  5.000000e+000
      vertex  1.700000e+001 -1.000000e+000  2.000000e+000
    endloop
  endfacet
  facet normal  1.564335e-001  9.876885e-001  -0.000000e+000
    outer loop
      vertex  1.500000e+001 -9.500000e+000  5.000000e+000
      vertex  1.453647e+001 -9.426585e+000  2.000000e+000
      vertex  1.453647e+001 -9.426585e+000  5.000000e+000
    endloop
  endfacet
  facet normal  4.539912e-001  8.910062e-001  0.000000e+000
    outer loop
      vertex  1.453647e+001 -9.426585e+000  5.000000e+000
      vertex  1.453647e+001 -9.426585e+000  2.000000e+000
      vertex  1.411832e+001 -9.213526e+000  2.000000e+000
    endloop
  endfacet
  facet normal  4.539912e-001  8.910062e-001  -0.000000e+000
    outer loop
      vertex  1.453647e+001 -9.426585e+000  5.000000e+000
      vertex  1.411832e+001 -9.213526e+000  2.000000e+000
      vertex  1.411832e+001 -9.213526e+000  5.000000e+000
    endloop
  endfacet
  facet normal  7.071068e-001  7.071068e-001  0.000000e+000
    outer loop
      vertex  1.411832e+001 -9.213526e+000  5.000000e+000
      vertex  1.411832e+001 -9.213526e+000  2.000000e+000
      vertex  1.378647e+001 -8.881678e+000  2.000000e+000
    endloop
  endfacet
  facet normal  7.071068e-001  7.071068e-001  -0.000000e+000
    outer loop
      vertex  1.411832e+001 -9.213526e+000  5.000000e+000
      vertex  1.378647e+001 -8.881678e+000  2.000000e+000
      vertex  1.378647e+001 -8.881678e+000  5.000000e+000
    endloop
  endfacet
  facet normal  8.910062e-001  4.539912e-001  0.000000e+000
    outer loop
      vertex  1.378647e+001 -8.881678e+000  5.000000e+000
      vertex  1.378647e+001 -8.881678e+000  2.000000e+000
      vertex  1.357341e+001 -8.463526e+000  2.000000e+000
    endloop
  endfacet
  facet normal  8.910062e-001  4.539912e-001  -0.000000e+000
    outer loop
      vertex  1.378647e+001 -8.881678e+000  5.000000e+000
      vertex  1.357341e+001 -8.463526e+000  2.000000e+000
      vertex  1.357341e+001 -8.463526e+000  5.000000e+000
    endloop
  endfacet
  facet normal  9.876885e-001  1.564335e-001  0.000000e+000
    outer loop
      vertex  1.357341e+001 -8.463526e+000  5.000000e+000
      vertex  1.357341e+001 -8.463526e+000  2.000000e+000
      vertex  1.350000e+001 -8.000000e+000  2.000000e+000
    endloop
  endfacet
  facet normal  9.876885e-001  1.564335e-001  -0.000000e+000
    outer loop
      vertex  1.357341e+001 -8.463526e+000  5.000000e+000
      vertex  1.350000e+001 -8.000000e+000  2.000000e+000
      vertex  1.350000e+001 -8.000000e+000  5.000000e+000
    endloop
  endfacet
  facet normal  1.564335e-001  9.876885e-001  0.000000e+000
    outer loop
      vertex  1.453647e+001 -9.426585e+000  2.000000e+000
      vertex  1.500000e+001 -9.500000e+000  5.000000e+000
      vertex  1.500000e+001 -9.500000e+000  2.000000e+000
    endloop
  endfacet
  facet normal -1.564335e-001  9.876885e-001  0.000000e+000
    outer loop
      vertex  1.500000e+001 -9.500000e+000  2.000000e+000
      vertex  1.500000e+001 -9.500000e+000  5.000000e+000
      vertex  1.546353e+001 -9.426585e+000  5.000000e+000
    endloop
  endfacet
  facet normal -1.564335e-001  9.876885e-001  0.000000e+000
    outer loop
      vertex  1.500000e+001 -9.500000e+000  2.000000e+000
      vertex  1.546353e+001 -9.426585e+000  5.000000e+000
      vertex  1.546353e+001 -9.426585e+000  2.000000e+000
    endloop
  endfacet
  facet normal -4.539912e-001  8.910062e-001  0.000000e+000
    outer loop
      vertex  1.546353e+001 -9.426585e+000  2.000000e+000
      vertex  1.546353e+001 -9.426585e+000  5.000000e+000
      vertex  1.588168e+001 -9.213526e+000  5.000000e+000
    endloop
  endfacet
  facet normal -4.539912e-001  8.910062e-001  0.000000e+000
    outer loop
      vertex  1.546353e+001 -9.426585e+000  2.000000e+000
      vertex  1.588168e+001 -9.213526e+000  5.000000e+000
      vertex  1.588168e+001 -9.213526e+000  2.000000e+000
    endloop
  endfacet
  facet normal -7.071068e-001  7.071068e-001  0.000000e+000
    outer loop
      vertex  1.588168e+001 -9.213526e+000  2.000000e+000
      vertex  1.588168e+001 -9.213526e+000  5.000000e+000
      vertex  1.621353e+001 -8.881678e+000  5.000000e+000
    endloop
  endfacet
  facet normal -7.071068e-001  7.071068e-001  0.000000e+000
    outer loop
      vertex  1.588168e+001 -9.213526e+000  2.000000e+000
      vertex  1.621353e+001 -8.881678e+000  5.000000e+000
      vertex  1.621353e+001 -8.881678e+000  2.000000e+000
    endloop
  endfacet
  facet normal -8.910069e-001  4.539896e-001  0.000000e+000
    outer loop
      vertex  1.621353e+001 -8.881678e+000  2.000000e+000
      vertex  1.621353e+001 -8.881678e+000  5.000000e+000
      vertex  1.642658e+001 -8.463526e+000  5.000000e+000
    endloop
  endfacet
  facet normal -8.910069e-001  4.539896e-001  0.000000e+000
    outer loop
      vertex  1.621353e+001 -8.881678e+000  2.000000e+000
      vertex  1.642658e+001 -8.463526e+000  5.000000e+000
      vertex  1.642658e+001 -8.463526e+000  2.000000e+000
    endloop
  endfacet
  facet normal -9.876881e-001  1.564355e-001  0.000000e+000
    outer loop
      vertex  1.642658e+001 -8.463526e+000  2.000000e+000
      vertex  1.642658e+001 -8.463526e+000  5.000000e+000
      vertex  1.650000e+001 -8.000000e+000  5.000000e+000
    endloop
  endfacet
  facet normal -9.876881e-001  1.564355e-001  0.000000e+000
    outer loop
      vertex  1.642658e+001 -8.463526e+000  2.000000e+000
      vertex  1.650000e+001 -8.000000e+000  5.000000e+000
      vertex  1.650000e+001 -8.000000e+000  2.000000e+000
    endloop
  endfacet
  facet normal -1.564345e-001 -9.876883e-001  0.000000e+000
    outer loop
      vertex  1.500000e+001 -6.500000e+000  5.000000e+000
      vertex  1.546353e+001 -6.573415e+000  2.000000e+000
      vertex  1.546353e+001 -6.573415e+000  5.000000e+000
    endloop
  endfacet
  facet normal -4.539912e-001 -8.910062e-001  -0.000000e+000
    outer loop
      vertex  1.546353e+001 -6.573415e+000  5.000000e+000
      vertex  1.546353e+001 -6.573415e+000  2.000000e+000
      vertex  1.588168e+001 -6.786475e+000  2.000000e+000
    endloop
  endfacet
  facet normal -4.539912e-001 -8.910062e-001  0.000000e+000
    outer loop
      vertex  1.546353e+001 -6.573415e+000  5.000000e+000
      vertex  1.588168e+001 -6.786475e+000  2.000000e+000
      vertex  1.588168e+001 -6.786475e+000  5.000000e+000
    endloop
  endfacet
  facet normal -7.071058e-001 -7.071078e-001  -0.000000e+000
    outer loop
      vertex  1.588168e+001 -6.786475e+000  5.000000e+000
      vertex  1.588168e+001 -6.786475e+000  2.000000e+000
      vertex  1.621353e+001 -7.118322e+000  2.000000e+000
    endloop
  endfacet
  facet normal -7.071058e-001 -7.071078e-001  0.000000e+000
    outer loop
      vertex  1.588168e+001 -6.786475e+000  5.000000e+000
      vertex  1.621353e+001 -7.118322e+000  2.000000e+000
      vertex  1.621353e+001 -7.118322e+000  5.000000e+000
    endloop
  endfacet
  facet normal -8.910074e-001 -4.539888e-001  -0.000000e+000
    outer loop
      vertex  1.621353e+001 -7.118322e+000  5.000000e+000
      vertex  1.621353e+001 -7.118322e+000  2.000000e+000
      vertex  1.642658e+001 -7.536475e+000  2.000000e+000
    endloop
  endfacet
  facet normal -8.910074e-001 -4.539888e-001  0.000000e+000
    outer loop
      vertex  1.621353e+001 -7.118322e+000  5.000000e+000
      vertex  1.642658e+001 -7.536475e+000  2.000000e+000
      vertex  1.642658e+001 -7.536475e+000  5.000000e+000
    endloop
  endfacet
  facet normal -9.876881e-001 -1.564356e-001  -0.000000e+000
    outer loop
      vertex  1.642658e+001 -7.536475e+000  5.000000e+000
      vertex  1.642658e+001 -7.536475e+000  2.000000e+000
      vertex  1.650000e+001 -8.000000e+000  2.000000e+000
    endloop
  endfacet
  facet normal -9.876881e-001 -1.564356e-001  0.000000e+000
    outer loop
      vertex  1.642658e+001 -7.536475e+000  5.000000e+000
      vertex  1.650000e+001 -8.000000e+000  2.000000e+000
      vertex  1.650000e+001 -8.000000e+000  5.000000e+000
    endloop
  endfacet
  facet normal -1.564345e-001 -9.876883e-001  -0.000000e+000
    outer loop
      vertex  1.546353e+001 -6.573415e+000  2.000000e+000
      vertex  1.500000e+001 -6.500000e+000  5.000000e+000
      vertex  1.500000e+001 -6.500000e+000  2.000000e+000
    endloop
  endfacet
  facet normal  1.564345e-001 -9.876883e-001  0.000000e+000
    outer loop
      vertex  1.500000e+001 -6.500000e+000  2.000000e+000
      vertex  1.500000e+001 -6.500000e+000  5.000000e+000
      vertex  1.453647e+001 -6.573415e+000  5.000000e+000
    endloop
  endfacet
  facet normal  1.564345e-001 -9.876883e-001  0.000000e+000
    outer loop
      vertex  1.500000e+001 -6.500000e+000  2.000000e+000
      vertex  1.453647e+001 -6.573415e+000  5.000000e+000
      vertex  1.453647e+001 -6.573415e+000  2.000000e+000
    endloop
  endfacet
  facet normal  4.539912e-001 -8.910062e-001  0.000000e+000
    outer loop
      vertex  1.453647e+001 -6.573415e+000  2.000000e+000
      vertex  1.453647e+001 -6.573415e+000  5.000000e+000
      vertex  1.411832e+001 -6.786475e+000  5.000000e+000
    endloop
  endfacet
  facet normal  4.539912e-001 -8.910062e-001  0.000000e+000
    outer loop
      vertex  1.453647e+001 -6.573415e+000  2.000000e+000
      vertex  1.411832e+001 -6.786475e+000  5.000000e+000
      vertex  1.411832e+001 -6.786475e+000  2.000000e+000
    endloop
  endfacet
  facet normal  7.071058e-001 -7.071078e-001  0.000000e+000
    outer loop
      vertex  1.411832e+001 -6.786475e+000  2.000000e+000
      vertex  1.411832e+001 -6.786475e+000  5.000000e+000
      vertex  1.378647e+001 -7.118322e+000  5.000000e+000
    endloop
  endfacet
  facet normal  7.071058e-001 -7.071078e-001  0.000000e+000
    outer loop
      vertex  1.411832e+001 -6.786475e+000  2.000000e+000
      vertex  1.378647e+001 -7.118322e+000  5.000000e+000
      vertex  1.378647e+001 -7.118322e+000  2.000000e+000
    endloop
  endfacet
  facet normal  8.910066e-001 -4.539904e-001  0.000000e+000
    outer loop
      vertex  1.378647e+001 -7.118322e+000  2.000000e+000
      vertex  1.378647e+001 -7.118322e+000  5.000000e+000
      vertex  1.357341e+001 -7.536475e+000  5.000000e+000
    endloop
  endfacet
  facet normal  8.910066e-001 -4.539904e-001  0.000000e+000
    outer loop
      vertex  1.378647e+001 -7.118322e+000  2.000000e+000
      vertex  1.357341e+001 -7.536475e+000  5.000000e+000
      vertex  1.357341e+001 -7.536475e+000  2.000000e+000
    endloop
  endfacet
  facet normal  9.876885e-001 -1.564336e-001  0.000000e+000
    outer loop
      vertex  1.357341e+001 -7.536475e+000  2.000000e+000
      vertex  1.357341e+001 -7.536475e+000  5.000000e+000
      vertex  1.350000e+001 -8.000000e+000  5.000000e+000
    endloop
  endfacet
  facet normal  9.876885e-001 -1.564336e-001  0.000000e+000
    outer loop
      vertex  1.357341e+001 -7.536475e+000  2.000000e+000
      vertex  1.350000e+001 -8.000000e+000  5.000000e+000
      vertex  1.350000e+001 -8.000000e+000  2.000000e+000
    endloop
  endfacet
  facet normal  1.000000e+000  0.000000e+000  0.000000e+000
    outer loop
      vertex  3.000000e+000 -1.000000e+001  2.000000e+000
      vertex  3.000000e+000 -1.000000e+001 -5.000000e+000
      vertex  3.000000e+000  2.536474e+000 -7.341523e-002
    endloop
  endfacet
  facet normal  9.999999e-001  0.000000e+000  -0.000000e+000
    outer loop
      vertex  3.000000e+000 -1.000000e+001  2.000000e+000
      vertex  3.000000e+000  2.536474e+000 -7.341523e-002
      vertex  3.000000e+000  3.000000e+000  0.000000e+000
    endloop
  endfacet
  facet normal  1.000000e+000  0.000000e+000  -0.000000e+000
    outer loop
      vertex  3.000000e+000 -1.000000e+001  2.000000e+000
      vertex  3.000000e+000  3.000000e+000  0.000000e+000
      vertex  3.000000e+000  1.000000e+001  2.000000e+000
    endloop
  endfacet
  facet normal  1.000000e+000  0.000000e+000  0.000000e+000
    outer loop
      vertex  3.000000e+000 -1.000000e+001 -5.000000e+000
      vertex  3.000000e+000  1.000000e+001 -5.000000e+000
      vertex  3.000000e+000  3.000000e+000 -3.000000e+000
    endloop
  endfacet
  facet normal  1.000000e+000  0.000000e+000  0.000000e+000
    outer loop
      vertex  3.000000e+000 -1.000000e+001 -5.000000e+000
      vertex  3.000000e+000  3.000000e+000 -3.000000e+000
      vertex  3.000000e+000  2.536474e+000 -2.926585e+000
    endloop
  endfacet
  facet normal  1.000000e+000  0.000000e+000  0.000000e+000
    outer loop
      vertex  3.000000e+000 -1.000000e+001 -5.000000e+000
      vertex  3.000000e+000  2.536474e+000 -2.926585e+000
      vertex  3.000000e+000  2.118322e+000 -2.713526e+000
    endloop
  endfacet
  facet normal  1.000000e+000  0.000000e+000  0.000000e+000
    outer loop
      vertex  3.000000e+000 -1.000000e+001 -5.000000e+000
      vertex  3.000000e+000  2.118322e+000 -2.713526e+000
      vertex  3.000000e+000  1.786474e+000 -2.381678e+000
    endloop
  endfacet
  facet normal  1.000000e+000  0.000000e+000  0.000000e+000
    outer loop
      vertex  3.000000e+000 -1.000000e+001 -5.000000e+000
      vertex  3.000000e+000  1.786474e+000 -2.381678e+000
      vertex  3.000000e+000  1.573415e+000 -1.963526e+000
    endloop
  endfacet
  facet normal  1.000000e+000  0.000000e+000  0.000000e+000
    outer loop
      vertex  3.000000e+000 -1.000000e+001 -5.000000e+000
      vertex  3.000000e+000  1.573415e+000 -1.963526e+000
      vertex  3.000000e+000  1.500000e+000 -1.500000e+000
    endloop
  endfacet
  facet normal  1.000000e+000  0.000000e+000  -0.000000e+000
    outer loop
      vertex  3.000000e+000 -1.000000e+001 -5.000000e+000
      vertex  3.000000e+000  1.500000e+000 -1.500000e+000
      vertex  3.000000e+000  1.573415e+000 -1.036474e+000
    endloop
  endfacet
  facet normal  1.000000e+000  0.000000e+000  -0.000000e+000
    outer loop
      vertex  3.000000e+000 -1.000000e+001 -5.000000e+000
      vertex  3.000000e+000  1.573415e+000 -1.036474e+000
      vertex  3.000000e+000  1.786474e+000 -6.183221e-001
    endloop
  endfacet
  facet normal  1.000000e+000  0.000000e+000  -0.000000e+000
    outer loop
      vertex  3.000000e+000 -1.000000e+001 -5.000000e+000
      vertex  3.000000e+000  1.786474e+000 -6.183221e-001
      vertex  3.000000e+000  2.118322e+000 -2.864745e-001
    endloop
  endfacet
  facet normal  1.000000e+000  0.000000e+000  -0.000000e+000
    outer loop
      vertex  3.000000e+000 -1.000000e+001 -5.000000e+000
      vertex  3.000000e+000  2.118322e+000 -2.864745e-001
      vertex  3.000000e+000  2.536474e+000 -7.341523e-002
    endloop
  endfacet
  facet normal  9.999999e-001  0.000000e+000  0.000000e+000
    outer loop
      vertex  3.000000e+000  1.000000e+001 -5.000000e+000
      vertex  3.000000e+000  3.881678e+000 -2.864745e-001
      vertex  3.000000e+000  4.213525e+000 -6.183221e-001
    endloop
  endfacet
  facet normal  1.000000e+000  0.000000e+000  0.000000e+000
    outer loop
      vertex  3.000000e+000  1.000000e+001 -5.000000e+000
      vertex  3.000000e+000  4.213525e+000 -6.183221e-001
      vertex  3.000000e+000  4.426585e+000 -1.036474e+000
    endloop
  endfacet
  facet normal  1.000000e+000  0.000000e+000  0.000000e+000
    outer loop
      vertex  3.000000e+000  1.000000e+001 -5.000000e+000
      vertex  3.000000e+000  4.426585e+000 -1.036474e+000
      vertex  3.000000e+000  4.500000e+000 -1.500000e+000
    endloop
  endfacet
  facet normal  1.000000e+000  0.000000e+000  0.000000e+000
    outer loop
      vertex  3.000000e+000  1.000000e+001 -5.000000e+000
      vertex  3.000000e+000  4.500000e+000 -1.500000e+000
      vertex  3.000000e+000  4.426585e+000 -1.963526e+000
    endloop
  endfacet
  facet normal  1.000000e+000  0.000000e+000  0.000000e+000
    outer loop
      vertex  3.000000e+000  1.000000e+001 -5.000000e+000
      vertex  3.000000e+000  4.426585e+000 -1.963526e+000
      vertex  3.000000e+000  4.213525e+000 -2.381678e+000
    endloop
  endfacet
  facet normal  1.000000e+000  0.000000e+000  0.000000e+000
    outer loop
      vertex  3.000000e+000  1.000000e+001 -5.000000e+000
      vertex  3.000000e+000  4.213525e+000 -2.381678e+000
      vertex  3.000000e+000  3.881678e+000 -2.713526e+000
    endloop
  endfacet
  facet normal  1.000000e+000  0.000000e+000  0.000000e+000
    outer loop
      vertex  3.000000e+000  1.000000e+001 -5.000000e+000
      vertex  3.000000e+000  3.881678e+000 -2.713526e+000
      vertex  3.000000e+000  3.463526e+000 -2.926585e+000
    endloop
  endfacet
  facet normal  9.999999e-001  0.000000e+000  0.000000e+000
    outer loop
      vertex  3.000000e+000  1.000000e+001 -5.000000e+000
      vertex  3.000000e+000  3.463526e+000 -2.926585e+000
      vertex  3.000000e+000  3.000000e+000 -3.000000e+000
    endloop
  endfacet
  facet normal  1.000000e+000  -0.000000e+000  0.000000e+000
    outer loop
      vertex  3.000000e+000  1.000000e+001  2.000000e+000
      vertex  3.000000e+000  3.000000e+000  0.000000e+000
      vertex  3.000000e+000  3.463526e+000 -7.341523e-002
    endloop
  endfacet
  facet normal  1.000000e+000  -0.000000e+000  0.000000e+000
    outer loop
      vertex  3.000000e+000  1.000000e+001  2.000000e+000
      vertex  3.000000e+000  3.463526e+000 -7.341523e-002
      vertex  3.000000e+000  3.881678e+000 -2.864745e-001
    endloop
  endfacet
  facet normal  1.000000e+000  -0.000000e+000  0.000000e+000
    outer loop
      vertex  3.000000e+000  1.000000e+001  2.000000e+000
      vertex  3.000000e+000  3.881678e+000 -2.864745e-001
      vertex  3.000000e+000  1.000000e+001 -5.000000e+000
    endloop
  endfacet
  facet normal -9.999999e-001  0.000000e+000  0.000000e+000
    outer loop
      vertex  0.000000e+000 -1.000000e+001 -5.000000e+000
      vertex  0.000000e+000 -1.000000e+001  5.000000e+000
      vertex  0.000000e+000  2.536474e+000 -7.341523e-002
    endloop
  endfacet
  facet normal -1.000000e+000  0.000000e+000  0.000000e+000
    outer loop
      vertex  0.000000e+000 -1.000000e+001 -5.000000e+000
      vertex  0.000000e+000  2.536474e+000 -7.341523e-002
      vertex  0.000000e+000  2.118322e+000 -2.864745e-001
    endloop
  endfacet
  facet normal -1.000000e+000  0.000000e+000  0.000000e+000
    outer loop
      vertex  0.000000e+000 -1.000000e+001 -5.000000e+000
      vertex  0.000000e+000  2.118322e+000 -2.864745e-001
      vertex  0.000000e+000  1.786474e+000 -6.183221e-001
    endloop
  endfacet
  facet normal -1.000000e+000  0.000000e+000  0.000000e+000
    outer loop
      vertex  0.000000e+000 -1.000000e+001 -5.000000e+000
      vertex  0.000000e+000  1.786474e+000 -6.183221e-001
      vertex  0.000000e+000  1.573415e+000 -1.036474e+000
    endloop
  endfacet
  facet normal -1.000000e+000  0.000000e+000  0.000000e+000
    outer loop
      vertex  0.000000e+000 -1.000000e+001 -5.000000e+000
      vertex  0.000000e+000  1.573415e+000 -1.036474e+000
      vertex  0.000000e+000  1.500000e+000 -1.500000e+000
    endloop
  endfacet
  facet normal -1.000000e+000  0.000000e+000  -0.000000e+000
    outer loop
      vertex  0.000000e+000 -1.000000e+001 -5.000000e+000
      vertex  0.000000e+000  1.500000e+000 -1.500000e+000
      vertex  0.000000e+000  1.573415e+000 -1.963526e+000
    endloop
  endfacet
  facet normal -9.999999e-001  0.000000e+000  -0.000000e+000
    outer loop
      vertex  0.000000e+000 -1.000000e+001 -5.000000e+000
      vertex  0.000000e+000  1.573415e+000 -1.963526e+000
      vertex  0.000000e+000  1.786474e+000 -2.381678e+000
    endloop
  endfacet
  facet normal -9.999999e-001  0.000000e+000  -0.000000e+000
    outer loop
      vertex  0.000000e+000 -1.000000e+001 -5.000000e+000
      vertex  0.000000e+000  1.786474e+000 -2.381678e+000
      vertex  0.000000e+000  2.118322e+000 -2.713526e+000
    endloop
  endfacet
  facet normal -1.000000e+000  0.000000e+000  -0.000000e+000
    outer loop
      vertex  0.000000e+000 -1.000000e+001 -5.000000e+000
      vertex  0.000000e+000  2.118322e+000 -2.713526e+000
      vertex  0.000000e+000  2.536474e+000 -2.926585e+000
    endloop
  endfacet
  facet normal -1.000000e+000  0.000000e+000  -0.000000e+000
    outer loop
      vertex  0.000000e+000 -1.000000e+001 -5.000000e+000
      vertex  0.000000e+000  2.536474e+000 -2.926585e+000
      vertex  0.000000e+000  3.000000e+000 -3.000000e+000
    endloop
  endfacet
  facet normal -1.000000e+000  0.000000e+000  -0.000000e+000
    outer loop
      vertex  0.000000e+000 -1.000000e+001 -5.000000e+000
      vertex  0.000000e+000  3.000000e+000 -3.000000e+000
      vertex  0.000000e+000  1.000000e+001 -5.000000e+000
    endloop
  endfacet
  facet normal -9.999999e-001  0.000000e+000  0.000000e+000
    outer loop
      vertex  0.000000e+000  1.000000e+001 -5.000000e+000
      vertex  0.000000e+000  3.000000e+000 -3.000000e+000
      vertex  0.000000e+000  3.463526e+000 -2.926585e+000
    endloop
  endfacet
  facet normal -1.000000e+000  0.000000e+000  0.000000e+000
    outer loop
      vertex  0.000000e+000  1.000000e+001 -5.000000e+000
      vertex  0.000000e+000  3.463526e+000 -2.926585e+000
      vertex  0.000000e+000  3.881678e+000 -2.713526e+000
    endloop
  endfacet
  facet normal -1.000000e+000  0.000000e+000  0.000000e+000
    outer loop
      vertex  0.000000e+000  1.000000e+001 -5.000000e+000
      vertex  0.000000e+000  3.881678e+000 -2.713526e+000
      vertex  0.000000e+000  4.213525e+000 -2.381678e+000
    endloop
  endfacet
  facet normal -1.000000e+000  0.000000e+000  0.000000e+000
    outer loop
      vertex  0.000000e+000  1.000000e+001 -5.000000e+000
      vertex  0.000000e+000  4.213525e+000 -2.381678e+000
      vertex  0.000000e+000  4.426585e+000 -1.963526e+000
    endloop
  endfacet
  facet normal -1.000000e+000  0.000000e+000  0.000000e+000
    outer loop
      vertex  0.000000e+000  1.000000e+001 -5.000000e+000
      vertex  0.000000e+000  4.426585e+000 -1.963526e+000
      vertex  0.000000e+000  4.500000e+000 -1.500000e+000
    endloop
  endfacet
  facet normal -1.000000e+000  0.000000e+000  0.000000e+000
    outer loop
      vertex  0.000000e+000  1.000000e+001 -5.000000e+000
      vertex  0.000000e+000  4.500000e+000 -1.500000e+000
      vertex  0.000000e+000  4.426585e+000 -1.036474e+000
    endloop
  endfacet
  facet normal -1.000000e+000  0.000000e+000  0.000000e+000
    outer loop
      vertex  0.000000e+000  1.000000e+001 -5.000000e+000
      vertex  0.000000e+000  4.426585e+000 -1.036474e+000
      vertex  0.000000e+000  4.213525e+000 -6.183221e-001
    endloop
  endfacet
  facet normal -1.000000e+000  0.000000e+000  0.000000e+000
    outer loop
      vertex  0.000000e+000  1.000000e+001 -5.000000e+000
      vertex  0.000000e+000  4.213525e+000 -6.183221e-001
      vertex  0.000000e+000  3.881678e+000 -2.864745e-001
    endloop
  endfacet
  facet normal -1.000000e+000  0.000000e+000  0.000000e+000
    outer loop
      vertex  0.000000e+000  1.000000e+001  5.000000e+000
      vertex  0.000000e+000  1.000000e+001 -5.000000e+000
      vertex  0.000000e+000  3.881678e+000 -2.864745e-001
    endloop
  endfacet
  facet normal -1.000000e+000  0.000000e+000  0.000000e+000
    outer loop
      vertex  0.000000e+000  1.000000e+001  5.000000e+000
      vertex  0.000000e+000  3.881678e+000 -2.864745e-001
      vertex  0.000000e+000  3.463526e+000 -7.341523e-002
    endloop
  endfacet
  facet normal -1.000000e+000  0.000000e+000  0.000000e+000
    outer loop
      vertex  0.000000e+000  1.000000e+001  5.000000e+000
      vertex  0.000000e+000  3.463526e+000 -7.341523e-002
      vertex  0.000000e+000  3.000000e+000 -2.220446e-016
    endloop
  endfacet
  facet normal -1.000000e+000  -0.000000e+000  0.000000e+000
    outer loop
      vertex  0.000000e+000  1.000000e+001  5.000000e+000
      vertex  0.000000e+000  3.000000e+000 -2.220446e-016
      vertex  0.000000e+000  2.536474e+000 -7.341523e-002
    endloop
  endfacet
  facet normal -9.999999e-001  0.000000e+000  0.000000e+000
    outer loop
      vertex  0.000000e+000  1.000000e+001  5.000000e+000
      vertex  0.000000e+000  2.536474e+000 -7.341523e-002
      vertex  0.000000e+000 -1.000000e+001  5.000000e+000
    endloop
  endfacet
  facet normal  0.000000e+000  1.564345e-001 -9.876883e-001
    outer loop
      vertex  0.000000e+000  3.000000e+000 -2.220446e-016
      vertex  3.000000e+000  2.536474e+000 -7.341523e-002
      vertex  0.000000e+000  2.536474e+000 -7.341523e-002
    endloop
  endfacet
  facet normal  0.000000e+000  4.539905e-001 -8.910065e-001
    outer loop
      vertex  0.000000e+000  2.536474e+000 -7.341523e-002
      vertex  3.000000e+000  2.536474e+000 -7.341523e-002
      vertex  3.000000e+000  2.118322e+000 -2.864745e-001
    endloop
  endfacet
  facet normal  0.000000e+000  4.539905e-001 -8.910065e-001
    outer loop
      vertex  0.000000e+000  2.536474e+000 -7.341523e-002
      vertex  3.000000e+000  2.118322e+000 -2.864745e-001
      vertex  0.000000e+000  2.118322e+000 -2.864745e-001
    endloop
  endfacet
  facet normal  0.000000e+000  7.071067e-001 -7.071068e-001
    outer loop
      vertex  0.000000e+000  2.118322e+000 -2.864745e-001
      vertex  3.000000e+000  2.118322e+000 -2.864745e-001
      vertex  3.000000e+000  1.786474e+000 -6.183221e-001
    endloop
  endfacet
  facet normal  0.000000e+000  7.071067e-001 -7.071068e-001
    outer loop
      vertex  0.000000e+000  2.118322e+000 -2.864745e-001
      vertex  3.000000e+000  1.786474e+000 -6.183221e-001
      vertex  0.000000e+000  1.786474e+000 -6.183221e-001
    endloop
  endfacet
  facet normal  0.000000e+000  8.910065e-001 -4.539903e-001
    outer loop
      vertex  0.000000e+000  1.786474e+000 -6.183221e-001
      vertex  3.000000e+000  1.786474e+000 -6.183221e-001
      vertex  3.000000e+000  1.573415e+000 -1.036474e+000
    endloop
  endfacet
  facet normal  0.000000e+000  8.910065e-001 -4.539903e-001
    outer loop
      vertex  0.000000e+000  1.786474e+000 -6.183221e-001
      vertex  3.000000e+000  1.573415e+000 -1.036474e+000
      vertex  0.000000e+000  1.573415e+000 -1.036474e+000
    endloop
  endfacet
  facet normal  0.000000e+000  9.876883e-001 -1.564346e-001
    outer loop
      vertex  0.000000e+000  1.573415e+000 -1.036474e+000
      vertex  3.000000e+000  1.573415e+000 -1.036474e+000
      vertex  3.000000e+000  1.500000e+000 -1.500000e+000
    endloop
  endfacet
  facet normal  0.000000e+000  9.876883e-001 -1.564346e-001
    outer loop
      vertex  0.000000e+000  1.573415e+000 -1.036474e+000
      vertex  3.000000e+000  1.500000e+000 -1.500000e+000
      vertex  0.000000e+000  1.500000e+000 -1.500000e+000
    endloop
  endfacet
  facet normal  7.310362e-017  1.564345e-001 -9.876883e-001
    outer loop
      vertex  3.000000e+000  2.536474e+000 -7.341523e-002
      vertex  0.000000e+000  3.000000e+000 -2.220446e-016
      vertex  3.000000e+000  3.000000e+000  0.000000e+000
    endloop
  endfacet
  facet normal  7.310362e-017 -1.564345e-001 -9.876883e-001
    outer loop
      vertex  3.000000e+000  3.000000e+000  0.000000e+000
      vertex  0.000000e+000  3.000000e+000 -2.220446e-016
      vertex  0.000000e+000  3.463526e+000 -7.341523e-002
    endloop
  endfacet
  facet normal  0.000000e+000 -1.564345e-001 -9.876883e-001
    outer loop
      vertex  3.000000e+000  3.000000e+000  0.000000e+000
      vertex  0.000000e+000  3.463526e+000 -7.341523e-002
      vertex  3.000000e+000  3.463526e+000 -7.341523e-002
    endloop
  endfacet
  facet normal  -0.000000e+000 -4.539905e-001 -8.910065e-001
    outer loop
      vertex  3.000000e+000  3.463526e+000 -7.341523e-002
      vertex  0.000000e+000  3.463526e+000 -7.341523e-002
      vertex  0.000000e+000  3.881678e+000 -2.864745e-001
    endloop
  endfacet
  facet normal  0.000000e+000 -4.539905e-001 -8.910065e-001
    outer loop
      vertex  3.000000e+000  3.463526e+000 -7.341523e-002
      vertex  0.000000e+000  3.881678e+000 -2.864745e-001
      vertex  3.000000e+000  3.881678e+000 -2.864745e-001
    endloop
  endfacet
  facet normal  -0.000000e+000 -7.071069e-001 -7.071065e-001
    outer loop
      vertex  3.000000e+000  3.881678e+000 -2.864745e-001
      vertex  0.000000e+000  3.881678e+000 -2.864745e-001
      vertex  0.000000e+000  4.213525e+000 -6.183221e-001
    endloop
  endfacet
  facet normal  0.000000e+000 -7.071069e-001 -7.071065e-001
    outer loop
      vertex  3.000000e+000  3.881678e+000 -2.864745e-001
      vertex  0.000000e+000  4.213525e+000 -6.183221e-001
      vertex  3.000000e+000  4.213525e+000 -6.183221e-001
    endloop
  endfacet
  facet normal  -0.000000e+000 -8.910064e-001 -4.539908e-001
    outer loop
      vertex  3.000000e+000  4.213525e+000 -6.183221e-001
      vertex  0.000000e+000  4.213525e+000 -6.183221e-001
      vertex  0.000000e+000  4.426585e+000 -1.036474e+000
    endloop
  endfacet
  facet normal  0.000000e+000 -8.910064e-001 -4.539908e-001
    outer loop
      vertex  3.000000e+000  4.213525e+000 -6.183221e-001
      vertex  0.000000e+000  4.426585e+000 -1.036474e+000
      vertex  3.000000e+000  4.426585e+000 -1.036474e+000
    endloop
  endfacet
  facet normal  -0.000000e+000 -9.876883e-001 -1.564346e-001
    outer loop
      vertex  3.000000e+000  4.426585e+000 -1.036474e+000
      vertex  0.000000e+000  4.426585e+000 -1.036474e+000
      vertex  0.000000e+000  4.500000e+000 -1.500000e+000
    endloop
  endfacet
  facet normal  0.000000e+000 -9.876883e-001 -1.564346e-001
    outer loop
      vertex  3.000000e+000  4.426585e+000 -1.036474e+000
      vertex  0.000000e+000  4.500000e+000 -1.500000e+000
      vertex  3.000000e+000  4.500000e+000 -1.500000e+000
    endloop
  endfacet
  facet normal  0.000000e+000 -1.564346e-001  9.876883e-001
    outer loop
      vertex  0.000000e+000  3.000000e+000 -3.000000e+000
      vertex  3.000000e+000  3.463526e+000 -2.926585e+000
      vertex  0.000000e+000  3.463526e+000 -2.926585e+000
    endloop
  endfacet
  facet normal  0.000000e+000 -4.539903e-001  8.910065e-001
    outer loop
      vertex  0.000000e+000  3.463526e+000 -2.926585e+000
      vertex  3.000000e+000  3.463526e+000 -2.926585e+000
      vertex  3.000000e+000  3.881678e+000 -2.713526e+000
    endloop
  endfacet
  facet normal  0.000000e+000 -4.539903e-001  8.910065e-001
    outer loop
      vertex  0.000000e+000  3.463526e+000 -2.926585e+000
      vertex  3.000000e+000  3.881678e+000 -2.713526e+000
      vertex  0.000000e+000  3.881678e+000 -2.713526e+000
    endloop
  endfacet
  facet normal  0.000000e+000 -7.071071e-001  7.071065e-001
    outer loop
      vertex  0.000000e+000  3.881678e+000 -2.713526e+000
      vertex  3.000000e+000  3.881678e+000 -2.713526e+000
      vertex  3.000000e+000  4.213525e+000 -2.381678e+000
    endloop
  endfacet
  facet normal  0.000000e+000 -7.071071e-001  7.071065e-001
    outer loop
      vertex  0.000000e+000  3.881678e+000 -2.713526e+000
      vertex  3.000000e+000  4.213525e+000 -2.381678e+000
      vertex  0.000000e+000  4.213525e+000 -2.381678e+000
    endloop
  endfacet
  facet normal  0.000000e+000 -8.910064e-001  4.539908e-001
    outer loop
      vertex  0.000000e+000  4.213525e+000 -2.381678e+000
      vertex  3.000000e+000  4.213525e+000 -2.381678e+000
      vertex  3.000000e+000  4.426585e+000 -1.963526e+000
    endloop
  endfacet
  facet normal  0.000000e+000 -8.910064e-001  4.539908e-001
    outer loop
      vertex  0.000000e+000  4.213525e+000 -2.381678e+000
      vertex  3.000000e+000  4.426585e+000 -1.963526e+000
      vertex  0.000000e+000  4.426585e+000 -1.963526e+000
    endloop
  endfacet
  facet normal  0.000000e+000 -9.876883e-001  1.564346e-001
    outer loop
      vertex  0.000000e+000  4.426585e+000 -1.963526e+000
      vertex  3.000000e+000  4.426585e+000 -1.963526e+000
      vertex  3.000000e+000  4.500000e+000 -1.500000e+000
    endloop
  endfacet
  facet normal  0.000000e+000 -9.876883e-001  1.564346e-001
    outer loop
      vertex  0.000000e+000  4.426585e+000 -1.963526e+000
      vertex  3.000000e+000  4.500000e+000 -1.500000e+000
      vertex  0.000000e+000  4.500000e+000 -1.500000e+000
    endloop
  endfacet
  facet normal  0.000000e+000 -1.564346e-001  9.876883e-001
    outer loop
      vertex  3.000000e+000  3.463526e+000 -2.926585e+000
      vertex  0.000000e+000  3.000000e+000 -3.000000e+000
      vertex  3.000000e+000  3.000000e+000 -3.000000e+000
    endloop
  endfacet
  facet normal  0.000000e+000  1.564346e-001  9.876883e-001
    outer loop
      vertex  3.000000e+000  3.000000e+000 -3.000000e+000
      vertex  0.000000e+000  3.000000e+000 -3.000000e+000
      vertex  0.000000e+000  2.536474e+000 -2.926585e+000
    endloop
  endfacet
  facet normal  -0.000000e+000  1.564346e-001  9.876883e-001
    outer loop
      vertex  3.000000e+000  3.000000e+000 -3.000000e+000
      vertex  0.000000e+000  2.536474e+000 -2.926585e+000
      vertex  3.000000e+000  2.536474e+000 -2.926585e+000
    endloop
  endfacet
  facet normal  0.000000e+000  4.539903e-001  8.910065e-001
    outer loop
      vertex  3.000000e+000  2.536474e+000 -2.926585e+000
      vertex  0.000000e+000  2.536474e+000 -2.926585e+000
      vertex  0.000000e+000  2.118322e+000 -2.713526e+000
    endloop
  endfacet
  facet normal  -0.000000e+000  4.539903e-001  8.910065e-001
    outer loop
      vertex  3.000000e+000  2.536474e+000 -2.926585e+000
      vertex  0.000000e+000  2.118322e+000 -2.713526e+000
      vertex  3.000000e+000  2.118322e+000 -2.713526e+000
    endloop
  endfacet
  facet normal  0.000000e+000  7.071068e-001  7.071068e-001
    outer loop
      vertex  3.000000e+000  2.118322e+000 -2.713526e+000
      vertex  0.000000e+000  2.118322e+000 -2.713526e+000
      vertex  0.000000e+000  1.786474e+000 -2.381678e+000
    endloop
  endfacet
  facet normal  -0.000000e+000  7.071068e-001  7.071068e-001
    outer loop
      vertex  3.000000e+000  2.118322e+000 -2.713526e+000
      vertex  0.000000e+000  1.786474e+000 -2.381678e+000
      vertex  3.000000e+000  1.786474e+000 -2.381678e+000
    endloop
  endfacet
  facet normal  0.000000e+000  8.910065e-001  4.539903e-001
    outer loop
      vertex  3.000000e+000  1.786474e+000 -2.381678e+000
      vertex  0.000000e+000  1.786474e+000 -2.381678e+000
      vertex  0.000000e+000  1.573415e+000 -1.963526e+000
    endloop
  endfacet
  facet normal  -0.000000e+000  8.910065e-001  4.539903e-001
    outer loop
      vertex  3.000000e+000  1.786474e+000 -2.381678e+000
      vertex  0.000000e+000  1.573415e+000 -1.963526e+000
      vertex  3.000000e+000  1.573415e+000 -1.963526e+000
    endloop
  endfacet
  facet normal  0.000000e+000  9.876883e-001  1.564346e-001
    outer loop
      vertex  3.000000e+000  1.573415e+000 -1.963526e+000
      vertex  0.000000e+000  1.573415e+000 -1.963526e+000
      vertex  0.000000e+000  1.500000e+000 -1.500000e+000
    endloop
  endfacet
  facet normal  -0.000000e+000  9.876883e-001  1.564346e-001
    outer loop
      vertex  3.000000e+000  1.573415e+000 -1.963526e+000
      vertex  0.000000e+000  1.500000e+000 -1.500000e+000
      vertex  3.000000e+000  1.500000e+000 -1.500000e+000
    endloop
  endfacet
  facet normal  1.000000e+000  0.000000e+000  0.000000e+000
    outer loop
      vertex  1.800000e+001 -1.000000e+001  2.000000e+000
      vertex  1.800000e+001  1.000000e+001  2.000000e+000
      vertex  1.800000e+001 -1.000000e+001  5.000000e+000
    endloop
  endfacet
  facet normal  1.000000e+000  -0.000000e+000  0.000000e+000
    outer loop
      vertex  1.800000e+001 -1.000000e+001  5.000000e+000
      vertex  1.800000e+001  1.000000e+001  2.000000e+000
      vertex  1.800000e+001  1.000000e+001  5.000000e+000
    endloop
  endfacet
  facet normal  0.000000e+000 -1.000000e+000  -0.000000e+000
    outer loop
      vertex  1.800000e+001 -1.000000e+001  2.000000e+000
      vertex  1.800000e+001 -1.000000e+001  5.000000e+000
      vertex  3.000000e+000 -1.000000e+001  2.000000e+000
    endloop
  endfacet
  facet normal  0.000000e+000 -1.000000e+000  0.000000e+000
    outer loop
      vertex  3.000000e+000 -1.000000e+001  2.000000e+000
      vertex  1.800000e+001 -1.000000e+001  5.000000e+000
      vertex  0.000000e+000 -1.000000e+001  5.000000e+000
    endloop
  endfacet
  facet normal  0.000000e+000 -1.000000e+000  0.000000e+000
    outer loop
      vertex  3.000000e+000 -1.000000e+001  2.000000e+000
      vertex  0.000000e+000 -1.000000e+001  5.000000e+000
      vertex  3.000000e+000 -1.000000e+001 -5.000000e+000
    endloop
  endfacet
  facet normal  0.000000e+000 -1.000000e+000  0.000000e+000
    outer loop
      vertex  3.000000e+000 -1.000000e+001 -5.000000e+000
      vertex  0.000000e+000 -1.000000e+001  5.000000e+000
      vertex  0.000000e+000 -1.000000e+001 -5.000000e+000
    endloop
  endfacet
  facet normal  0.000000e+000  1.000000e+000  -0.000000e+000
    outer loop
      vertex  1.800000e+001  1.000000e+001  5.000000e+000
      vertex  1.800000e+001  1.000000e+001  2.000000e+000
      vertex  0.000000e+000  1.000000e+001  5.000000e+000
    endloop
  endfacet
  facet normal  0.000000e+000  1.000000e+000  0.000000e+000
    outer loop
      vertex  0.000000e+000  1.000000e+001  5.000000e+000
      vertex  1.800000e+001  1.000000e+001  2.000000e+000
      vertex  3.000000e+000  1.000000e+001  2.000000e+000
    endloop
  endfacet
  facet normal  0.000000e+000  1.000000e+000  0.000000e+000
    outer loop
      vertex  0.000000e+000  1.000000e+001  5.000000e+000
      vertex  3.000000e+000  1.000000e+001  2.000000e+000
      vertex  0.000000e+000  1.000000e+001 -5.000000e+000
    endloop
  endfacet
  facet normal  0.000000e+000  1.000000e+000  0.000000e+000
    outer loop
      vertex  0.000000e+000  1.000000e+001 -5.000000e+000
      vertex  3.000000e+000  1.000000e+001  2.000000e+000
      vertex  3.000000e+000  1.000000e+001 -5.000000e+000
    endloop
  endfacet
  facet normal  0.000000e+000  0.000000e+000 -1.000000e+000
    outer loop
      vertex  3.000000e+000  1.000000e+001 -5.000000e+000
      vertex  3.000000e+000 -1.000000e+001 -5.000000e+000
      vertex  0.000000e+000  1.000000e+001 -5.000000e+000
    endloop
  endfacet
  facet normal  0.000000e+000  0.000000e+000 -1.000000e+000
    outer loop
      vertex  0.000000e+000  1.000000e+001 -5.000000e+000
      vertex  3.000000e+000 -1.000000e+001 -5.000000e+000
      vertex  0.000000e+000 -1.000000e+001 -5.000000e+000
    endloop
  endfacet
endsolid CATIA STL
